<mxfile host="Electron" agent="Mozilla/5.0 (Windows NT 10.0; Win64; x64) AppleWebKit/537.36 (KHTML, like Gecko) draw.io/26.0.16 Chrome/132.0.6834.196 Electron/34.2.0 Safari/537.36" version="26.0.16">
  <diagram name="Page-1" id="yuhwpuQ0-d-Q4wT_5GEu">
    <mxGraphModel dx="2172" dy="820" grid="1" gridSize="10" guides="1" tooltips="1" connect="1" arrows="1" fold="1" page="1" pageScale="1" pageWidth="850" pageHeight="1100" math="0" shadow="0">
      <root>
        <mxCell id="0" />
        <mxCell id="1" parent="0" />
        <mxCell id="w6ok6DQaCQ6lvcVAS3x2-1" value="" style="rounded=0;whiteSpace=wrap;html=1;" parent="1" vertex="1">
          <mxGeometry x="-800" y="128" width="160" height="200" as="geometry" />
        </mxCell>
        <mxCell id="w6ok6DQaCQ6lvcVAS3x2-2" value="SAMPLE" style="text;html=1;align=left;verticalAlign=bottom;whiteSpace=wrap;rounded=0;fontFamily=Lucida Console;" parent="1" vertex="1">
          <mxGeometry x="-800" y="110" width="160" height="20" as="geometry" />
        </mxCell>
        <mxCell id="w6ok6DQaCQ6lvcVAS3x2-3" value="sampleEn" style="text;html=1;align=left;verticalAlign=bottom;whiteSpace=wrap;rounded=0;fontFamily=Lucida Console;spacingRight=0;spacingLeft=12;" parent="1" vertex="1">
          <mxGeometry x="-640" y="209.99999999999994" width="120" height="20" as="geometry" />
        </mxCell>
        <mxCell id="w6ok6DQaCQ6lvcVAS3x2-4" value="" style="endArrow=none;html=1;rounded=0;" parent="1" edge="1">
          <mxGeometry width="50" height="50" relative="1" as="geometry">
            <mxPoint x="-640" y="229.99999999999994" as="sourcePoint" />
            <mxPoint x="-520" y="229.99999999999994" as="targetPoint" />
          </mxGeometry>
        </mxCell>
        <mxCell id="w6ok6DQaCQ6lvcVAS3x2-5" value="" style="rounded=0;whiteSpace=wrap;html=1;" parent="1" vertex="1">
          <mxGeometry x="-520" y="128" width="160" height="200" as="geometry" />
        </mxCell>
        <mxCell id="w6ok6DQaCQ6lvcVAS3x2-6" value="DEBOUNCE" style="text;html=1;align=left;verticalAlign=bottom;whiteSpace=wrap;rounded=0;fontFamily=Lucida Console;" parent="1" vertex="1">
          <mxGeometry x="-520" y="110" width="160" height="20" as="geometry" />
        </mxCell>
        <mxCell id="w6ok6DQaCQ6lvcVAS3x2-7" value="asyncIn" style="html=1;shadow=0;dashed=0;align=center;verticalAlign=middle;shape=mxgraph.arrows2.arrow;dy=0;dx=10;notch=0;fontFamily=Lucida Console;spacingRight=16;" parent="1" vertex="1">
          <mxGeometry x="-800" y="40" width="100" height="25" as="geometry" />
        </mxCell>
        <mxCell id="w6ok6DQaCQ6lvcVAS3x2-8" value="" style="endArrow=none;html=1;rounded=0;exitX=1;exitY=0.5;exitDx=0;exitDy=0;exitPerimeter=0;entryX=0;entryY=0.25;entryDx=0;entryDy=0;edgeStyle=elbowEdgeStyle;" parent="1" source="w6ok6DQaCQ6lvcVAS3x2-7" target="w6ok6DQaCQ6lvcVAS3x2-5" edge="1">
          <mxGeometry width="50" height="50" relative="1" as="geometry">
            <mxPoint x="-360" y="300" as="sourcePoint" />
            <mxPoint x="-310" y="250" as="targetPoint" />
            <Array as="points">
              <mxPoint x="-580" y="130" />
            </Array>
          </mxGeometry>
        </mxCell>
        <mxCell id="w6ok6DQaCQ6lvcVAS3x2-11" value="" style="endArrow=none;html=1;rounded=0;" parent="1" edge="1">
          <mxGeometry width="50" height="50" relative="1" as="geometry">
            <mxPoint x="-360" y="228.99999999999994" as="sourcePoint" />
            <mxPoint x="-240" y="228.99999999999994" as="targetPoint" />
          </mxGeometry>
        </mxCell>
        <mxCell id="w6ok6DQaCQ6lvcVAS3x2-12" value="syncOut" style="html=1;shadow=0;dashed=0;align=center;verticalAlign=middle;shape=mxgraph.arrows2.arrow;dy=0;dx=10;notch=0;fontFamily=Lucida Console;spacingRight=16;" parent="1" vertex="1">
          <mxGeometry x="-240" y="215.5" width="100" height="25" as="geometry" />
        </mxCell>
        <mxCell id="-2H6ujgB_6u9d_CAOe3r-3" value="reset" style="html=1;shadow=0;dashed=0;align=center;verticalAlign=middle;shape=mxgraph.arrows2.arrow;dy=0;dx=10;notch=0;fontFamily=Lucida Console;spacingRight=16;" parent="1" vertex="1">
          <mxGeometry x="-800" y="377.57000000000016" width="100" height="25" as="geometry" />
        </mxCell>
        <mxCell id="-2H6ujgB_6u9d_CAOe3r-4" value="clock" style="html=1;shadow=0;dashed=0;align=center;verticalAlign=middle;shape=mxgraph.arrows2.arrow;dy=0;dx=10;notch=0;fontFamily=Lucida Console;spacingRight=16;" parent="1" vertex="1">
          <mxGeometry x="-800" y="410.57000000000016" width="100" height="25" as="geometry" />
        </mxCell>
        <mxCell id="-2H6ujgB_6u9d_CAOe3r-5" value="clock" style="text;html=1;align=left;verticalAlign=bottom;whiteSpace=wrap;rounded=0;fontFamily=Lucida Console;spacingRight=0;spacingLeft=12;" parent="1" vertex="1">
          <mxGeometry x="-700" y="370.0000000000001" width="120" height="20" as="geometry" />
        </mxCell>
        <mxCell id="-2H6ujgB_6u9d_CAOe3r-6" value="" style="endArrow=none;html=1;rounded=0;" parent="1" edge="1">
          <mxGeometry width="50" height="50" relative="1" as="geometry">
            <mxPoint x="-700" y="390.0000000000001" as="sourcePoint" />
            <mxPoint x="-620" y="389.57000000000016" as="targetPoint" />
          </mxGeometry>
        </mxCell>
        <mxCell id="-2H6ujgB_6u9d_CAOe3r-7" value="reset" style="text;html=1;align=left;verticalAlign=bottom;whiteSpace=wrap;rounded=0;fontFamily=Lucida Console;spacingRight=0;spacingLeft=12;" parent="1" vertex="1">
          <mxGeometry x="-700" y="403.0000000000001" width="120" height="20" as="geometry" />
        </mxCell>
        <mxCell id="-2H6ujgB_6u9d_CAOe3r-8" value="" style="endArrow=none;html=1;rounded=0;entryX=0.657;entryY=0.979;entryDx=0;entryDy=0;entryPerimeter=0;" parent="1" target="-2H6ujgB_6u9d_CAOe3r-7" edge="1">
          <mxGeometry width="50" height="50" relative="1" as="geometry">
            <mxPoint x="-700" y="423.0000000000001" as="sourcePoint" />
            <mxPoint x="-580" y="423.0000000000001" as="targetPoint" />
          </mxGeometry>
        </mxCell>
        <mxCell id="wjIjVjwS_y51bI3vKLFI-1" value="reset" style="text;html=1;align=right;verticalAlign=bottom;whiteSpace=wrap;rounded=0;fontFamily=Lucida Console;spacingRight=12;" vertex="1" parent="1">
          <mxGeometry x="-600" y="260" width="80" height="20" as="geometry" />
        </mxCell>
        <mxCell id="wjIjVjwS_y51bI3vKLFI-2" value="" style="endArrow=none;html=1;rounded=0;exitX=0;exitY=0;exitDx=0;exitDy=0;" edge="1" source="wjIjVjwS_y51bI3vKLFI-3" parent="1">
          <mxGeometry width="50" height="50" relative="1" as="geometry">
            <mxPoint x="-640" y="280" as="sourcePoint" />
            <mxPoint x="-520" y="280" as="targetPoint" />
          </mxGeometry>
        </mxCell>
        <mxCell id="wjIjVjwS_y51bI3vKLFI-3" value="clock" style="text;html=1;align=right;verticalAlign=bottom;whiteSpace=wrap;rounded=0;fontFamily=Lucida Console;spacingRight=12;" vertex="1" parent="1">
          <mxGeometry x="-600" y="280" width="80" height="20" as="geometry" />
        </mxCell>
        <mxCell id="wjIjVjwS_y51bI3vKLFI-4" value="" style="endArrow=none;html=1;rounded=0;exitX=0;exitY=1;exitDx=0;exitDy=0;" edge="1" source="wjIjVjwS_y51bI3vKLFI-3" parent="1">
          <mxGeometry width="50" height="50" relative="1" as="geometry">
            <mxPoint x="-640" y="300.30999999999995" as="sourcePoint" />
            <mxPoint x="-520" y="300.30999999999995" as="targetPoint" />
          </mxGeometry>
        </mxCell>
        <mxCell id="wjIjVjwS_y51bI3vKLFI-5" value="reset" style="text;html=1;align=right;verticalAlign=bottom;whiteSpace=wrap;rounded=0;fontFamily=Lucida Console;spacingRight=12;" vertex="1" parent="1">
          <mxGeometry x="-880" y="259" width="80" height="20" as="geometry" />
        </mxCell>
        <mxCell id="wjIjVjwS_y51bI3vKLFI-6" value="" style="endArrow=none;html=1;rounded=0;exitX=0;exitY=0;exitDx=0;exitDy=0;" edge="1" parent="1" source="wjIjVjwS_y51bI3vKLFI-7">
          <mxGeometry width="50" height="50" relative="1" as="geometry">
            <mxPoint x="-920" y="279" as="sourcePoint" />
            <mxPoint x="-800" y="279" as="targetPoint" />
          </mxGeometry>
        </mxCell>
        <mxCell id="wjIjVjwS_y51bI3vKLFI-7" value="clock" style="text;html=1;align=right;verticalAlign=bottom;whiteSpace=wrap;rounded=0;fontFamily=Lucida Console;spacingRight=12;" vertex="1" parent="1">
          <mxGeometry x="-880" y="279" width="80" height="20" as="geometry" />
        </mxCell>
        <mxCell id="wjIjVjwS_y51bI3vKLFI-8" value="" style="endArrow=none;html=1;rounded=0;exitX=0;exitY=1;exitDx=0;exitDy=0;" edge="1" parent="1" source="wjIjVjwS_y51bI3vKLFI-7">
          <mxGeometry width="50" height="50" relative="1" as="geometry">
            <mxPoint x="-920" y="299.30999999999995" as="sourcePoint" />
            <mxPoint x="-800" y="299.30999999999995" as="targetPoint" />
          </mxGeometry>
        </mxCell>
      </root>
    </mxGraphModel>
  </diagram>
</mxfile>
